<?xml version="1.0" encoding="iso-8859-1"?>
<!-- Generator: Adobe Illustrator 18.0.0, SVG Export Plug-In . SVG Version: 6.00 Build 0)  -->
<!DOCTYPE svg PUBLIC "-//W3C//DTD SVG 1.1//EN" "http://www.w3.org/Graphics/SVG/1.1/DTD/svg11.dtd">
<svg version="1.1" id="Capa_1" xmlns="http://www.w3.org/2000/svg" xmlns:xlink="http://www.w3.org/1999/xlink" x="0px" y="0px"
	 viewBox="0 0 149.29 149.29" style="enable-background:new 0 0 149.29 149.29;" xml:space="preserve">
<g>
	<path style="fill:#EB6D4A;" d="M149.289,74.645c0,41.225-33.419,74.644-74.644,74.644C33.42,149.289,0,115.87,0,74.645
		S33.42,0.001,74.645,0.001C115.871,0.001,149.289,33.42,149.289,74.645"/>
	<g>
		<defs>
			<path id="SVGID_1_" d="M0,74.645c0,41.225,33.42,74.645,74.643,74.645c41.227,0,74.645-33.42,74.645-74.645S115.871,0,74.644,0
				C33.42,0,0,33.42,0,74.645"/>
		</defs>
		<clipPath id="SVGID_2_">
			<use xlink:href="#SVGID_1_"  style="overflow:visible;"/>
		</clipPath>
		<path style="clip-path:url(#SVGID_2_);fill:#ECC19C;" d="M107.862,41.887v24.808c0,0.31-0.008,0.62-0.016,0.93v0.146
			c-0.01,0.418-0.045,0.834-0.069,1.251c-0.009,0.14-0.011,0.282-0.02,0.421c-0.002,0.048-0.007,0.096-0.011,0.144
			c-0.011,0.133-0.011,0.269-0.022,0.403c-0.016,0.22-0.032,0.44-0.065,0.661c0,0.032,0,0.065-0.008,0.097
			c0,0.033-0.008,0.074-0.016,0.107c-0.009,0.106-0.018,0.212-0.033,0.31c-0.008,0.081-0.016,0.163-0.033,0.252
			c0,0.041-0.008,0.082-0.016,0.131c-0.057,0.489-0.122,0.971-0.204,1.46c-0.024,0.147-0.049,0.294-0.073,0.441
			c-0.017,0.138-0.041,0.277-0.065,0.416c0,0.008,0,0.008-0.009,0.016c-0.064,0.335-0.121,0.669-0.195,0.995
			c-0.008,0.074-0.024,0.139-0.04,0.204c-0.018,0.066-0.025,0.131-0.041,0.188c-0.008,0.041-0.017,0.082-0.025,0.114
			c0,0.017-0.008,0.033-0.008,0.041c-0.041,0.163-0.073,0.326-0.114,0.489c0,0.033-0.008,0.066-0.023,0.098
			c0,0.025-0.01,0.049-0.018,0.082c0,0.024-0.008,0.049-0.016,0.065c-0.025,0.155-0.074,0.318-0.106,0.473
			c-0.008,0.009-0.008,0.009-0.008,0.017c-0.033,0.147-0.074,0.302-0.123,0.448c-0.008,0.009-0.008,0.009-0.008,0.017
			c-0.163,0.66-0.359,1.313-0.563,1.958c-0.008,0.008-0.008,0.008-0.008,0.016c-0.098,0.31-0.195,0.612-0.302,0.922
			c-0.008,0.032-0.024,0.065-0.032,0.098c-0.098,0.277-0.195,0.554-0.294,0.832c-0.033,0.081-0.064,0.163-0.098,0.253
			c-0.099,0.261-0.196,0.522-0.302,0.783c-0.122,0.318-0.253,0.628-0.384,0.938c-0.113,0.277-0.236,0.555-0.358,0.832
			c-0.018,0.049-0.041,0.09-0.058,0.139c-0.139,0.293-0.269,0.587-0.407,0.873c-0.14,0.301-0.286,0.603-0.441,0.905
			c-0.293,0.596-0.611,1.191-0.93,1.77l-0.44,0.784c-1.257,2.161-2.651,4.193-4.169,6.069c-0.204,0.269-0.416,0.53-0.636,0.783
			c-0.302,0.367-0.612,0.726-0.922,1.077c-0.277,0.31-0.556,0.62-0.84,0.922c-0.196,0.212-0.393,0.416-0.589,0.62
			c-0.595,0.612-1.198,1.199-1.803,1.754c-0.163,0.163-0.334,0.31-0.505,0.465c-0.278,0.253-0.555,0.497-0.841,0.734
			c-0.22,0.196-0.448,0.383-0.677,0.571c-0.587,0.481-1.175,0.946-1.771,1.379c-0.245,0.187-0.498,0.367-0.75,0.538
			c-0.408,0.294-0.824,0.571-1.24,0.84c-0.229,0.155-0.465,0.302-0.701,0.441c-0.832,0.514-1.673,0.987-2.505,1.395
			c-0.203,0.106-0.407,0.204-0.611,0.302c-0.204,0.098-0.416,0.195-0.638,0.293c-0.269,0.123-0.537,0.237-0.807,0.343
			c-0.105,0.049-0.212,0.09-0.318,0.122c-0.318,0.131-0.645,0.253-0.963,0.359c-0.399,0.147-0.808,0.27-1.207,0.384
			c-0.277,0.081-0.563,0.155-0.841,0.22c-0.016,0.008-0.032,0.016-0.057,0.016c-0.277,0.066-0.556,0.131-0.832,0.18
			c-0.073,0.016-0.147,0.032-0.22,0.041c-0.229,0.04-0.457,0.081-0.686,0.106c-0.327,0.049-0.652,0.089-0.979,0.106
			c-0.115,0.016-0.222,0.024-0.335,0.024c-0.262,0.016-0.522,0.025-0.775,0.025h-0.032c-0.253,0-0.498-0.009-0.751-0.025
			c-0.098,0-0.196-0.008-0.294-0.024c-0.227-0.008-0.465-0.033-0.709-0.066c-0.049,0-0.106-0.008-0.155-0.016
			c-0.302-0.041-0.604-0.09-0.913-0.147c-0.262-0.04-0.522-0.098-0.791-0.163c-1.396-0.318-2.831-0.799-4.283-1.444
			c-1.24-0.546-2.497-1.207-3.745-1.974c-0.628-0.383-1.256-0.791-1.876-1.224c-0.311-0.22-0.62-0.44-0.93-0.669
			c-0.972-0.709-1.935-1.484-2.881-2.316c-0.261-0.237-0.521-0.474-0.782-0.718c-0.262-0.237-0.523-0.482-0.775-0.718
			c-0.636-0.612-1.256-1.248-1.86-1.909c-0.235-0.253-0.473-0.514-0.71-0.783c-0.651-0.735-1.289-1.493-1.892-2.285
			c-0.237-0.285-0.457-0.579-0.677-0.872c-0.824-1.094-1.607-2.236-2.343-3.419c-0.195-0.318-0.391-0.644-0.578-0.962
			c-0.229-0.384-0.449-0.775-0.67-1.167c-0.815-1.468-1.565-2.994-2.219-4.568c-0.098-0.229-0.195-0.457-0.276-0.685
			c-0.132-0.294-0.245-0.596-0.352-0.89c-0.163-0.432-0.317-0.864-0.465-1.297c-0.147-0.432-0.285-0.873-0.424-1.313
			c-0.131-0.424-0.253-0.849-0.367-1.281c-0.131-0.449-0.245-0.905-0.351-1.37c-0.009-0.009-0.009-0.017-0.009-0.025
			c-0.008-0.049-0.024-0.098-0.032-0.147c-0.155-0.652-0.293-1.313-0.416-1.982c-0.163-0.881-0.294-1.779-0.392-2.684
			c-0.041-0.286-0.065-0.571-0.09-0.857c-0.033-0.302-0.057-0.595-0.074-0.897c-0.04-0.547-0.064-1.101-0.081-1.656
			c-0.008-0.351-0.016-0.694-0.016-1.044V41.887c0-1.884,0.155-3.728,0.456-5.523C44.524,20.66,58.164,8.693,74.611,8.676h0.04
			c2.529,0,4.993,0.286,7.359,0.816c2.162,0.49,4.242,1.191,6.216,2.08c2.692,1.208,5.197,2.758,7.448,4.61
			c1.893,1.55,3.614,3.295,5.114,5.221c3.338,4.25,5.654,9.324,6.601,14.871C107.699,38.101,107.862,39.97,107.862,41.887"/>
		<path style="clip-path:url(#SVGID_2_);fill:#ECC19C;" d="M117.92,159.287H31.373c0-4.887,0.809-9.594,2.31-13.974
			c0.269-0.792,0.563-1.575,0.881-2.35v-0.008c0.31-0.775,0.652-1.534,1.012-2.284c1.427-3.01,3.206-5.825,5.27-8.403
			c0.522-0.644,1.053-1.272,1.599-1.876c0.27-0.31,0.555-0.612,0.841-0.914c0.285-0.294,0.571-0.587,0.864-0.881v-0.008
			c0.735-0.726,1.485-1.428,2.268-2.097c0.327-0.277,0.669-0.563,1.004-0.832v-0.008c0.024-0.016,0.04-0.033,0.065-0.049
			c0.041-0.041,0.082-0.065,0.114-0.098c0.407-0.318,0.808-0.644,1.224-0.946c0.4-0.294,0.799-0.579,1.207-0.865
			c0.008-0.008,0.025-0.016,0.041-0.024c0.098-0.065,0.196-0.139,0.294-0.196c0.171-0.122,0.351-0.245,0.522-0.343v-0.008
			c0.154-0.106,0.302-0.204,0.457-0.302c0.432-0.277,0.863-0.538,1.305-0.799c0.439-0.261,0.889-0.514,1.338-0.759
			c0.016-0.016,0.032-0.008,0.032-0.008v-0.008c0.253-0.139,0.506-0.286,0.751-0.433c0.098-0.057,0.188-0.114,0.285-0.171
			c0.335-0.204,0.678-0.416,1.004-0.636c0.31-0.204,0.62-0.416,0.914-0.645c0.023-0.008,0.04-0.024,0.064-0.04
			c0.081-0.066,0.163-0.123,0.253-0.188c0.236-0.163,0.457-0.343,0.685-0.53c0,0,0.008-0.008,0.008,0
			c0.351-0.286,0.702-0.571,1.044-0.881c0.025-0.017,0.057-0.041,0.082-0.074c0.334-0.293,0.669-0.603,0.995-0.922
			c0.22-0.22,0.44-0.44,0.661-0.668c0.896-0.939,1.721-1.942,2.472-3.003c1.444-2.015,2.61-4.234,3.467-6.599
			c0-0.008,0-0.008,0.008-0.017v-0.008c1.036-2.888,1.6-5.996,1.6-9.243l6.298,0.033h0.008l6.485,0.033
			c0,3.206,0.547,6.281,1.559,9.136v0.009l0.008,0.008c0.841,2.374,1.999,4.601,3.427,6.616c1.484,2.104,3.255,3.981,5.262,5.588
			h0.008c0.245,0.204,0.49,0.4,0.734,0.579c0.057,0.041,0.105,0.082,0.164,0.122c0.293,0.221,0.595,0.433,0.904,0.637
			c0.066,0.049,0.122,0.09,0.188,0.13c0.089,0.057,0.179,0.123,0.269,0.18c0.114,0.081,0.229,0.155,0.352,0.22
			c0.089,0.057,0.179,0.114,0.276,0.171c0.132,0.082,0.262,0.155,0.393,0.237c0.204,0.122,0.416,0.245,0.628,0.359
			c0.057,0.016,0.098,0.049,0.146,0.073c0.358,0.196,0.719,0.408,1.068,0.612c0.359,0.204,0.702,0.416,1.053,0.636
			c0.171,0.107,0.334,0.204,0.497,0.319c0.123,0.073,0.245,0.155,0.367,0.244v0.009c0.017,0.008,0.025,0.016,0.033,0.016
			l0.098,0.065c0.089,0.058,0.173,0.125,0.263,0.184c0.498,0.328,0.987,0.673,1.468,1.034c0.083,0.061,0.17,0.115,0.252,0.177v0.008
			h0.017c0.407,0.31,0.815,0.62,1.215,0.947l0.065,0.048c0.024,0.017,0.041,0.033,0.057,0.049c0.147,0.115,0.286,0.229,0.425,0.351
			c0.597,0.491,1.175,1.006,1.74,1.531c0.394,0.363,0.784,0.728,1.164,1.104v0.008c0.489,0.49,0.971,0.987,1.437,1.501
			c0.473,0.514,0.93,1.036,1.37,1.567C114.201,139.21,117.92,148.804,117.92,159.287"/>
		<path style="clip-path:url(#SVGID_2_);fill:#CAD3E1;" d="M117.92,159.287H31.373c0-4.887,0.809-9.594,2.31-13.974
			c0.269-0.792,0.563-1.575,0.881-2.35v-0.008c0.31-0.775,0.652-1.534,1.012-2.284c1.427-3.01,3.206-5.825,5.27-8.403
			c0.522-0.644,1.053-1.272,1.599-1.876c0.27-0.31,0.555-0.612,0.841-0.914c0.285-0.294,0.571-0.587,0.864-0.881
			c0.735-0.734,1.485-1.427,2.268-2.105c0.327-0.277,0.669-0.563,1.004-0.832c0.024-0.016,0.04-0.041,0.065-0.057
			c0.041-0.032,0.073-0.065,0.114-0.09c0.407-0.326,0.808-0.636,1.224-0.946c0.416-0.31,0.824-0.604,1.248-0.889
			c0.27-0.188,0.539-0.367,0.816-0.547c0.154-0.106,0.302-0.204,0.457-0.301c0.432-0.278,0.863-0.547,1.305-0.808
			c0.439-0.261,0.889-0.514,1.338-0.759c0.016-0.016,0.032-0.008,0.032-0.008v-0.008c0.253-0.139,0.506-0.286,0.751-0.433
			c0.098-0.048,0.188-0.106,0.285-0.163c0.343-0.204,0.678-0.424,1.004-0.644c0.31-0.204,0.62-0.416,0.914-0.645
			c0.023-0.008,0.04-0.024,0.064-0.04c0.081-0.066,0.163-0.123,0.253-0.188c0.065-0.057,0.139-0.114,0.212-0.171
			c0.155-0.115,0.311-0.245,0.466-0.367l0.008,0.008l0.008,0.008c1.942,1.982,4.226,3.622,6.763,4.805
			c2.121,1.011,4.431,1.697,6.854,2.007c0.146,0.032,0.301,0.049,0.456,0.065c0.571,0.065,1.15,0.106,1.737,0.122
			c0.27,0.017,0.539,0.025,0.816,0.025h0.073c0.269,0,0.539-0.008,0.8-0.025c0.587-0.008,1.158-0.049,1.729-0.114
			c0.163-0.016,0.327-0.033,0.482-0.065c2.414-0.302,4.715-0.987,6.836-1.982c2.561-1.192,4.87-2.839,6.828-4.83l0.008-0.008
			c0.245,0.204,0.49,0.391,0.734,0.579c0.057,0.041,0.105,0.082,0.164,0.122c0.293,0.221,0.595,0.441,0.904,0.645
			c0.066,0.049,0.122,0.09,0.188,0.13c0.089,0.058,0.179,0.115,0.269,0.172c0.114,0.081,0.229,0.155,0.352,0.22
			c0.089,0.065,0.187,0.122,0.276,0.179c0.132,0.082,0.262,0.155,0.393,0.229c0.204,0.122,0.416,0.245,0.628,0.359
			c0.057,0.016,0.098,0.049,0.146,0.073c0.358,0.196,0.719,0.408,1.068,0.612c0.359,0.212,0.702,0.424,1.053,0.645
			c0.171,0.098,0.334,0.204,0.497,0.31c0.123,0.081,0.245,0.163,0.367,0.253c0.017,0.008,0.025,0.016,0.033,0.016
			c0.033,0.024,0.064,0.049,0.098,0.073l0.049,0.033c0.661,0.424,1.306,0.881,1.934,1.362h0.017c0.407,0.31,0.815,0.62,1.215,0.947
			l0.065,0.048l0.057,0.041v0.008c0.147,0.115,0.286,0.229,0.425,0.351c1.012,0.832,1.982,1.722,2.904,2.643
			c0.489,0.49,0.971,0.987,1.437,1.501c0.465,0.514,0.921,1.036,1.37,1.567C114.201,139.21,117.92,148.804,117.92,159.287"/>
		<path style="clip-path:url(#SVGID_2_);fill:#1A1A1A;" d="M69.096,51.652v-0.008c-1.469-3.729-5.107-6.364-9.349-6.364
			c-5.539,0-10.034,4.487-10.034,10.026c0,5.548,4.495,10.035,10.034,10.035c5.538,0,10.025-4.479,10.033-10.018v-0.017
			C69.781,54.017,69.536,52.786,69.096,51.652 M59.748,63.709c-4.627,0-8.395-3.769-8.395-8.403c0-4.625,3.768-8.394,8.395-8.394
			c4.25,0,7.782,3.182,8.328,7.285v0.016c0.05,0.359,0.074,0.734,0.074,1.11C68.141,59.948,64.364,63.709,59.748,63.709"/>
		<path style="clip-path:url(#SVGID_2_);fill:#1A1A1A;" d="M89.466,45.28c-4.25,0-7.89,2.644-9.333,6.38
			c0,0.008-0.008,0.008-0.008,0.016c-0.44,1.126-0.686,2.35-0.686,3.63v0.017c0.008,5.539,4.495,10.018,10.026,10.018
			c5.547,0,10.034-4.487,10.034-10.035C99.5,49.767,95.013,45.28,89.466,45.28 M89.466,63.709c-4.617,0-8.387-3.761-8.395-8.386
			v-0.017l0.065-1.044c0-0.032,0.008-0.057,0.016-0.089c0.547-4.096,4.071-7.261,8.314-7.261c4.634,0,8.402,3.769,8.402,8.394
			C97.869,59.94,94.1,63.709,89.466,63.709"/>
		<path style="clip-path:url(#SVGID_2_);fill:#1A1A1A;" d="M81.151,54.174c-0.009,0.033-0.017,0.057-0.017,0.09l-0.066,1.045v0.016
			h-1.632v-0.016c-0.009-2.661-2.163-4.816-4.824-4.816c-2.661,0-4.833,2.163-4.833,4.832h-1.632c0-0.376-0.025-0.751-0.074-1.11
			c0.155-0.939,0.506-1.804,1.021-2.563c1.191-1.788,3.217-2.963,5.519-2.963c2.301,0,4.342,1.183,5.518,2.971
			c0.008,0.008,0.008,0.016,0.017,0.024C80.636,52.419,80.988,53.268,81.151,54.174"/>
		<path style="clip-path:url(#SVGID_2_);fill:#495463;" d="M50.887,123.122v44.876H47.42v-42.347
			c0.024-0.016,0.041-0.033,0.065-0.049c0.041-0.033,0.073-0.065,0.113-0.09v-0.008c0.408-0.318,0.809-0.644,1.225-0.946
			c0.399-0.294,0.8-0.579,1.207-0.865c0.017-0.008,0.024-0.016,0.041-0.016v-0.008c0.098-0.066,0.195-0.139,0.294-0.196
			C50.537,123.351,50.708,123.237,50.887,123.122"/>
		<polygon style="clip-path:url(#SVGID_2_);fill:#495463;" points="98.406,123.134 98.406,159.281 98.406,168.002 101.873,168.002 
			101.873,159.281 101.873,125.663 		"/>
		<path style="clip-path:url(#SVGID_2_);fill:#E7ECF2;" d="M74.643,120.316l-0.023,0.041l-0.01,0.016l-0.563,0.938v0.008
			l-2.104,3.533l-0.343,0.571l-0.692,1.158l-0.237,0.408c-0.905,1.526-2.48,2.301-4.046,2.301c-1.437,0-2.88-0.645-3.826-1.958
			l-5.76-8.011l-0.008-0.008c0.154-0.115,0.317-0.229,0.473-0.351c0.155-0.123,0.318-0.253,0.465-0.375v0.008l0.008,0.008
			c0,0,0.009-0.008,0.009,0c0.359-0.286,0.701-0.571,1.044-0.881c0.024-0.017,0.058-0.041,0.081-0.074
			c0.335-0.293,0.669-0.603,0.996-0.921c0.221-0.221,0.448-0.441,0.66-0.669c0.898-0.939,1.722-1.942,2.472-3.002l11.372,7.236
			l0.01,0.008L74.643,120.316z"/>
		<path style="clip-path:url(#SVGID_2_);fill:#E7ECF2;" d="M92.263,119.316l-5.768,8.015c-1.98,2.753-6.135,2.575-7.873-0.338
			l-3.948-6.616l-0.032-0.058l11.453-7.293c1.484,2.105,3.256,3.981,5.262,5.588C91.659,118.859,91.96,119.096,92.263,119.316"/>
		<path style="clip-path:url(#SVGID_2_);fill:#543E36;" d="M107.854,66.711c0,0.359-0.008,0.718-0.017,1.077
			c-0.017,0.555-0.041,1.109-0.082,1.656c-0.008,0.188-0.023,0.375-0.041,0.563c-0.008,0.114-0.016,0.22-0.031,0.334
			c-0.008,0.106-0.018,0.204-0.025,0.31c-0.008,0.066-0.016,0.139-0.023,0.204c0,0.033-0.009,0.074-0.018,0.106
			c-0.016,0.155-0.032,0.302-0.049,0.457c0,0.041-0.008,0.082-0.016,0.131c-0.058,0.489-0.122,0.97-0.204,1.46
			c-0.024,0.147-0.05,0.294-0.073,0.44c-0.025,0.147-0.049,0.286-0.074,0.433c-0.064,0.334-0.122,0.669-0.195,0.995
			c-0.017,0.074-0.024,0.139-0.041,0.204c-0.017,0.065-0.024,0.131-0.041,0.188c-0.008,0.016-0.008,0.032-0.016,0.049
			c0,0.024,0,0.049-0.008,0.065c0,0.016-0.009,0.032-0.009,0.041c-0.04,0.163-0.073,0.326-0.114,0.489
			c0,0.033-0.008,0.065-0.024,0.098c0,0.024-0.008,0.049-0.017,0.081c0,0.024-0.008,0.049-0.016,0.065c0,0.016,0,0.032-0.017,0.049
			c-0.033,0.163-0.074,0.318-0.123,0.473c-0.008,0.073-0.023,0.147-0.049,0.22c-0.016,0.065-0.04,0.139-0.048,0.196
			c-0.009,0.008-0.009,0.008-0.009,0.016c-0.171,0.661-0.367,1.314-0.563,1.958c-0.008,0.008-0.008,0.008-0.008,0.017
			c-0.098,0.31-0.196,0.611-0.302,0.921c-0.008,0.033-0.024,0.066-0.032,0.098c-0.098,0.278-0.196,0.555-0.294,0.832
			c-0.032,0.082-0.065,0.164-0.098,0.253c-0.099,0.261-0.196,0.522-0.303,0.783c-0.122,0.319-0.252,0.629-0.383,0.939
			c-0.114,0.277-0.237,0.554-0.358,0.832c-0.017,0.049-0.041,0.089-0.058,0.138c-0.139,0.294-0.269,0.588-0.408,0.873
			c-0.139,0.302-0.285,0.604-0.439,0.906c-0.294,0.595-0.612,1.191-0.931,1.77l-0.44,0.783c-1.256,2.162-2.651,4.193-4.169,6.07
			c-0.204,0.269-0.416,0.53-0.636,0.783c-0.303,0.367-0.612,0.726-0.923,1.077c-0.276,0.31-0.555,0.62-0.84,0.921
			c-0.195,0.213-0.392,0.417-0.587,0.62c-0.596,0.62-1.2,1.208-1.811,1.771c-0.164,0.163-0.335,0.31-0.506,0.465
			c-0.278,0.253-0.556,0.497-0.842,0.734c-0.22,0.196-0.447,0.383-0.677,0.571c-0.587,0.481-1.174,0.946-1.77,1.379
			c-0.245,0.187-0.498,0.367-0.75,0.538c-0.408,0.294-0.824,0.571-1.24,0.84c-0.229,0.155-0.465,0.302-0.702,0.441
			c-0.832,0.514-1.672,0.987-2.504,1.395c-0.204,0.106-0.408,0.204-0.612,0.302c-0.195,0.098-0.407,0.187-0.62,0.285
			c-0.008,0-0.008,0.008-0.017,0.008c-0.269,0.123-0.538,0.237-0.807,0.343c-0.106,0.049-0.212,0.09-0.318,0.122
			c-0.318,0.131-0.644,0.253-0.963,0.359c-0.4,0.147-0.808,0.269-1.207,0.384c-0.278,0.081-0.563,0.155-0.841,0.22
			c-0.017,0.008-0.032,0.016-0.058,0.016c-0.276,0.066-0.555,0.131-0.832,0.18c-0.072,0.016-0.146,0.032-0.22,0.041
			c-0.229,0.04-0.457,0.081-0.685,0.106c-0.327,0.049-0.653,0.089-0.979,0.106c-0.114,0.016-0.221,0.024-0.335,0.024
			c-0.261,0.016-0.521,0.025-0.774,0.025h-0.024c-0.253,0-0.506-0.009-0.759-0.025c-0.099,0-0.196-0.008-0.294-0.024
			c-0.229-0.008-0.465-0.033-0.709-0.066c-0.049,0-0.106-0.008-0.155-0.016c-0.302-0.041-0.604-0.09-0.914-0.147
			c-0.261-0.041-0.521-0.098-0.791-0.163c-1.395-0.318-2.831-0.799-4.283-1.444c-1.239-0.546-2.497-1.207-3.745-1.974
			c-0.628-0.375-1.248-0.783-1.876-1.224c-0.31-0.22-0.62-0.44-0.93-0.669c-0.971-0.709-1.933-1.484-2.88-2.317
			c-0.261-0.236-0.522-0.473-0.783-0.717c-0.261-0.237-0.521-0.482-0.774-0.718c-0.637-0.612-1.257-1.248-1.86-1.909
			c-0.236-0.253-0.473-0.514-0.71-0.783c-0.652-0.735-1.289-1.493-1.892-2.285c-0.237-0.285-0.457-0.579-0.678-0.872
			c-0.824-1.094-1.606-2.236-2.342-3.419c-0.195-0.318-0.391-0.644-0.579-0.962c-0.228-0.384-0.449-0.775-0.669-1.167
			c-0.816-1.468-1.566-2.994-2.219-4.568c-0.099-0.229-0.196-0.457-0.277-0.685c-0.131-0.294-0.245-0.596-0.351-0.89
			c-0.163-0.432-0.318-0.864-0.465-1.297c-0.148-0.432-0.285-0.873-0.425-1.313c-0.131-0.424-0.253-0.849-0.366-1.281
			c-0.132-0.457-0.253-0.922-0.359-1.395c-0.008-0.049-0.025-0.098-0.033-0.147c-0.155-0.652-0.293-1.313-0.416-1.982
			c-0.163-0.881-0.293-1.779-0.391-2.684c-0.041-0.286-0.066-0.571-0.09-0.857c-0.033-0.302-0.058-0.595-0.074-0.897
			c-0.04-0.547-0.066-1.101-0.081-1.656c-0.008-0.359-0.016-0.718-0.016-1.077l0.008,0.016l5.294,10.41l9.112,3.973l10.776,0.97
			h0.008l7.987,0.727h0.049l7.473,0.677h0.008l16.667,1.501L107.854,66.711z"/>
		<path style="clip-path:url(#SVGID_2_);fill:#543E36;" d="M74.676,71.949l-0.009,8.035v0.009l-0.008,2.814v2.211l-0.008,7.342
			v0.008l-0.009-0.008h-0.008l-0.024-0.016L42.542,76.02l-0.017-0.008c-0.008-0.049-0.024-0.098-0.033-0.147
			c-0.154-0.653-0.294-1.314-0.416-1.983c-0.163-0.881-0.294-1.778-0.391-2.684c-0.041-0.285-0.066-0.571-0.09-0.856
			c-0.033-0.302-0.058-0.596-0.074-0.898c-0.04-0.546-0.066-1.101-0.081-1.656c-0.008-0.359-0.016-0.717-0.016-1.076v-9.749
			c0,0.139,0.008,0.277,0.008,0.416c0.065,2.358,0.44,4.952,1.166,7.603c0.563,2.04,1.265,3.924,2.081,5.605v0.008
			c2.137,4.446,5,7.464,7.635,7.954c0.163,0.024,0.335,0.04,0.498,0.057c1.021,0.114,2.088,0.179,3.19,0.179
			c4.159,0,7.855-3.344,10.181-4.699l0.049-0.024c0.122-0.074,0.244-0.147,0.351-0.22c0.032-0.025,0.065-0.041,0.098-0.057
			c1.958-1.118,4.781-1.828,7.93-1.836H74.676z"/>
		<path style="clip-path:url(#SVGID_2_);fill:#543E36;" d="M107.863,56.962l-0.008,9.749c0,2.447-0.229,4.845-0.653,7.17
			c-0.171,0.93-0.366,1.852-0.595,2.766l-7.53,10.874l-24.425,4.838h-0.008l-0.008,0.008v-0.008l-0.024-20.414h0.065
			c3.148,0.008,5.979,0.718,7.937,1.836c0.033,0.016,0.059,0.032,0.09,0.057c0.114,0.073,0.237,0.147,0.359,0.22
			c0.008,0.008,0.025,0.016,0.041,0.025c2.333,1.354,6.021,4.701,10.181,4.701c1.102,0,2.17-0.065,3.19-0.179
			c0.171-0.017,0.334-0.033,0.505-0.057c2.627-0.49,5.499-3.508,7.628-7.954v-0.008c0.816-1.681,1.517-3.565,2.08-5.605
			c0.734-2.692,1.118-5.319,1.167-7.709C107.863,57.166,107.863,57.068,107.863,56.962"/>
		<path style="clip-path:url(#SVGID_2_);fill:#ECC19C;" d="M82.775,82.504c0-1.389-3.643-2.515-8.137-2.515
			c-4.494,0-8.137,1.126-8.137,2.515c0,1.389,3.643,2.515,8.137,2.515C79.132,85.02,82.775,83.894,82.775,82.504"/>
		<path style="clip-path:url(#SVGID_2_);fill:#543E36;" d="M107.862,41.887v9.284c-2.717-4.805-4.151-9.586-4.185-13.526
			c-5.8,4.046-16.643,6.771-29.066,6.787h-0.098c-12.466,0-23.348-2.733-29.157-6.787c-0.032,3.818-1.378,8.411-3.923,13.053v-8.811
			c0-1.884,0.155-3.728,0.456-5.523C44.524,20.66,58.164,8.693,74.611,8.676h0.04c2.529,0,4.993,0.286,7.359,0.816
			c2.162,0.49,4.242,1.191,6.216,2.08c2.692,1.208,5.197,2.758,7.448,4.61c1.893,1.55,3.614,3.295,5.114,5.221
			c3.338,4.25,5.654,9.324,6.601,14.871C107.699,38.101,107.862,39.97,107.862,41.887"/>
		<path style="clip-path:url(#SVGID_2_);fill:#141720;" d="M74.05,125.529l-7.147,2.404c-1.058,0.354-2.152-0.431-2.152-1.547
			v-5.929c0-1.115,1.095-1.902,2.152-1.546l7.147,2.403V125.529z"/>
		<path style="clip-path:url(#SVGID_2_);fill:#141720;" d="M75.233,125.529l7.146,2.404c1.059,0.354,2.152-0.431,2.152-1.547v-5.929
			c0-1.115-1.094-1.902-2.152-1.546l-7.146,2.403V125.529z"/>
		<path style="clip-path:url(#SVGID_2_);fill:#141720;" d="M75.336,126.524h-1.39c-1.104,0-2-0.895-2-2v-2.205c0-1.105,0.896-2,2-2
			h1.39c1.105,0,2,0.895,2,2v2.205C77.336,125.629,76.442,126.524,75.336,126.524"/>
	</g>
</g>
<g>
</g>
<g>
</g>
<g>
</g>
<g>
</g>
<g>
</g>
<g>
</g>
<g>
</g>
<g>
</g>
<g>
</g>
<g>
</g>
<g>
</g>
<g>
</g>
<g>
</g>
<g>
</g>
<g>
</g>
</svg>
